<svg width="270" height="198" viewBox="0 0 270 198" fill="none" xmlns="http://www.w3.org/2000/svg">
<path d="M210.57 162C223.398 162.004 235.771 157.244 245.288 148.642C254.805 140.04 260.788 128.21 262.076 115.446C263.364 102.683 259.865 89.8956 252.259 79.5656C244.652 69.2356 233.48 62.0989 220.91 59.54C216.788 46.2192 208.971 34.3409 198.369 25.2842C187.766 16.2276 174.812 10.3641 161.011 8.3747C147.209 6.38526 133.127 8.35145 120.398 14.045C107.669 19.7385 96.8165 28.9257 89.0999 40.54C80.5441 37.773 71.4902 36.8928 62.5616 37.9599C53.633 39.027 45.0416 42.0161 37.3788 46.7215C29.716 51.4269 23.1638 57.7368 18.1732 65.217C13.1826 72.6971 9.87203 81.1698 8.46944 90.0519C7.06685 98.934 7.60553 108.015 10.0484 116.669C12.4913 125.323 16.7803 133.344 22.6203 140.182C28.4603 147.02 35.7125 152.511 43.8779 156.277C52.0432 160.044 60.9277 161.996 69.9199 162" fill="#DCDDDD"/>
<path d="M210.57 169.54C225.038 169.387 238.962 164.003 249.769 154.382C260.576 144.761 267.535 131.553 269.36 117.2C273.06 87.2 252.36 58.73 222.9 52.34L228.14 57.58C219.07 29.19 194.97 6.76998 165.33 1.57998C149.611 -1.18604 133.426 0.672698 118.744 6.93036C104.061 13.188 91.5113 23.5752 82.6199 36.83L91.0899 33.38C59.6899 23.69 24.7399 37.15 8.82994 66.15C-6.33006 93.8 -0.790054 129.52 22.4899 150.94C35.4458 162.803 52.3438 169.434 69.9099 169.55C79.5699 169.66 79.5699 154.66 69.9099 154.55C45.4099 154.28 23.5499 137.95 17.0699 114.15C13.9824 102.465 14.8136 90.09 19.4361 78.923C24.0586 67.7561 32.2171 58.414 42.6599 52.33C56.2399 44.5 72.1999 43.24 87.0899 47.84C90.4299 48.84 93.7199 47.1 95.5599 44.39C110.2 22.85 136.98 11.25 162.71 16.29C174.476 18.5942 185.409 24.0113 194.37 31.9768C203.331 39.9424 209.992 50.1651 213.66 61.58C214.008 62.8306 214.674 63.9701 215.592 64.8881C216.51 65.8062 217.649 66.4716 218.9 66.82C241.43 71.71 257.4 92.57 254.51 115.82C251.77 137.91 232.51 154.23 210.51 154.52C200.87 154.65 200.84 169.65 210.51 169.52L210.57 169.54Z" fill="#231815"/>
<path d="M96.08 169.54H185.35C195 169.54 195.02 154.54 185.35 154.54H96.08C86.43 154.54 86.41 169.54 96.08 169.54Z" fill="#231815"/>
<path d="M192.21 126.24H80.82C71.17 126.24 71.15 141.24 80.82 141.24H192.21C201.86 141.24 201.88 126.24 192.21 126.24Z" fill="#231815"/>
<path d="M214 182.83H113.82C104.17 182.83 104.15 197.83 113.82 197.83H214C223.65 197.83 223.67 182.83 214 182.83Z" fill="#231815"/>
</svg>
