<svg width="423" height="351" viewBox="0 0 423 351" fill="none" xmlns="http://www.w3.org/2000/svg">
<path d="M211.855 259.655C258.689 259.655 296.655 221.689 296.655 174.855C296.655 128.021 258.689 90.0549 211.855 90.0549C165.021 90.0549 127.055 128.021 127.055 174.855C127.055 221.689 165.021 259.655 211.855 259.655Z" fill="#FFFCDD"/>
<path d="M289.155 174.855C288.895 206.785 268.885 236.545 238.545 247.445C223.42 252.861 206.994 253.491 191.498 249.252C176.002 245.012 162.186 236.107 151.925 223.745C131.405 198.915 129.045 162.605 145.545 135.085C162.045 107.565 195.305 92.5351 226.945 99.0051C244.415 102.648 260.112 112.159 271.429 125.957C282.746 139.755 289.001 157.01 289.155 174.855C289.235 184.505 304.235 184.525 304.155 174.855C303.99 155.904 298.068 137.451 287.173 121.943C276.279 106.436 260.927 94.6066 243.155 88.0251C207.075 74.7351 164.635 86.5051 140.485 116.365C116.335 146.225 112.695 189.015 132.585 222.195C152.585 255.585 192.155 272.815 230.265 265.305C273.015 256.855 303.855 218.015 304.155 174.855C304.235 165.205 289.235 165.195 289.155 174.855Z" fill="#231815"/>
<path d="M219.355 56.245V24.245C219.355 14.595 204.355 14.575 204.355 24.245V56.245C204.355 65.895 219.355 65.915 219.355 56.245Z" fill="#231815"/>
<path d="M159.025 68.345L143.025 40.655C138.195 32.295 125.235 39.845 130.025 48.225L146.025 75.915C150.855 84.275 163.815 76.725 159.025 68.345Z" fill="#231815"/>
<path d="M112.915 109.075L85.225 93.075C76.845 88.235 69.285 101.195 77.655 106.075L105.345 122.075C113.725 126.915 121.285 113.955 112.915 109.075Z" fill="#231815"/>
<path d="M93.245 167.355H61.245C51.595 167.355 51.575 182.355 61.245 182.355H93.245C102.895 182.355 102.915 167.355 93.245 167.355Z" fill="#231815"/>
<path d="M105.345 227.685L77.655 243.685C69.295 248.515 76.845 261.475 85.225 256.685L112.915 240.685C121.275 235.855 113.725 222.895 105.345 227.685Z" fill="#231815"/>
<path d="M146.075 273.795L130.075 301.485C125.235 309.865 138.195 317.425 143.075 309.055L159.075 281.365C163.915 272.985 150.955 265.425 146.075 273.795Z" fill="#231815"/>
<path d="M204.355 293.465V325.465C204.355 335.115 219.355 335.135 219.355 325.465V293.465C219.355 283.815 204.355 283.795 204.355 293.465Z" fill="#231815"/>
<path d="M264.685 281.365L280.685 309.055C285.515 317.415 298.475 309.865 293.685 301.485L277.685 273.795C272.855 265.435 259.895 272.985 264.685 281.365Z" fill="#231815"/>
<path d="M310.795 240.635L338.485 256.635C346.865 261.475 354.425 248.515 346.055 243.635L318.365 227.635C309.985 222.795 302.425 235.755 310.795 240.635Z" fill="#231815"/>
<path d="M330.465 182.355H362.465C372.115 182.355 372.135 167.355 362.465 167.355H330.465C320.815 167.355 320.795 182.355 330.465 182.355Z" fill="#231815"/>
<path d="M318.365 122.025L346.055 106.025C354.415 101.195 346.865 88.2351 338.485 93.0251L310.795 109.025C302.435 113.855 309.985 126.815 318.365 122.025Z" fill="#231815"/>
<path d="M277.635 75.915L293.635 48.225C298.475 39.845 285.515 32.285 280.635 40.655L264.635 68.345C259.795 76.725 272.755 84.285 277.635 75.915Z" fill="#231815"/>
</svg>
