<svg width="317" height="236" viewBox="0 0 317 236" fill="none" xmlns="http://www.w3.org/2000/svg">
<path d="M300.67 185.33C301.16 199.85 292.25 213.57 278.39 218.4C272.33 220.51 266.26 220.31 259.98 220.31H169.5C164.91 220.31 160.31 220.36 155.71 220.31C148.043 220.321 140.521 218.225 133.964 214.252C127.407 210.278 122.068 204.58 118.528 197.779C114.989 190.979 113.386 183.336 113.894 175.686C114.402 168.036 117.002 160.673 121.41 154.4C131.94 139.07 151.41 133.4 168.87 138.76C172.22 139.76 175.49 138.02 177.34 135.31C188.61 118.83 209.16 109.89 228.91 113.76C237.93 115.525 246.315 119.665 253.2 125.753C260.086 131.84 265.222 139.655 268.08 148.39C268.266 149.739 268.881 150.993 269.833 151.967C270.785 152.941 272.025 153.584 273.37 153.8C288.38 157.12 300.14 169.59 300.67 185.33Z" fill="white"/>
<path d="M292.986 146.49L292.462 146.152L292.246 146.736C291.386 149.054 290.363 151.308 289.185 153.482L288.968 153.881L289.345 154.135C293.592 156.993 297.258 160.63 300.152 164.853L300.581 165.478L300.987 164.838C302.44 162.545 303.752 160.166 304.916 157.714L305.051 157.431L304.854 157.187C301.498 153.007 297.49 149.396 292.986 146.49Z" fill="#231815" stroke="#231815"/>
<path d="M254 75.82C276.46 80.65 294.56 99.28 296.46 122.63C297.108 130.547 296.002 138.51 293.22 145.95C289.464 143.52 285.388 141.625 281.11 140.32C272.76 119.32 254.2 102.91 231.55 99.04C219.773 96.9947 207.663 98.1421 196.48 102.363C185.297 106.584 175.449 113.724 167.96 123.04C159.067 121.137 149.851 121.365 141.063 123.706C132.276 126.047 124.167 130.435 117.4 136.51C111.36 142.053 106.589 148.836 103.413 156.394C100.237 163.951 98.7319 172.106 98.9999 180.3C92.7699 180.3 86.5499 180.36 80.3299 180.3C63.2698 180.25 46.9152 173.486 34.804 161.47C22.6929 149.455 15.799 133.154 15.6137 116.095C15.4284 99.0362 21.9666 82.5898 33.8138 70.3142C45.6611 58.0385 61.8649 50.9205 78.9199 50.5C86.2907 50.3987 93.6292 51.4929 100.65 53.74C103.98 54.74 107.28 53 109.12 50.29C126.41 24.79 158.04 11.11 188.47 17.01C202.361 19.7112 215.275 26.0856 225.867 35.4698C236.46 44.8541 244.344 56.9055 248.7 70.37C248.872 71.7304 249.483 72.9978 250.439 73.981C251.395 74.9641 252.645 75.6096 254 75.82V75.82Z" fill="white"/>
<path d="M293.18 145.95C292.312 148.29 291.28 150.566 290.09 152.76C287.779 151.2 285.316 149.877 282.74 148.81C283.131 147.419 283.082 145.942 282.6 144.58C282.14 143.14 281.63 141.72 281.07 140.32C285.349 141.625 289.425 143.52 293.18 145.95V145.95Z" fill="#231815"/>
<path d="M282.6 144.58C283.082 145.942 283.131 147.419 282.74 148.81C280.362 147.827 277.893 147.077 275.37 146.57C274.643 144.227 273.768 141.932 272.75 139.7C274.211 139.098 275.824 138.972 277.36 139.34C278.62 139.62 279.85 139.94 281.07 140.34C281.63 141.727 282.14 143.14 282.6 144.58Z" fill="#231815"/>
<path d="M275.37 146.57C277.893 147.077 280.362 147.827 282.74 148.81C280.95 154.76 270.59 156.15 268.14 148.57L268.08 148.39C267.828 146.633 268.146 144.841 268.986 143.277C269.826 141.713 271.145 140.46 272.75 139.7C273.768 141.932 274.643 144.227 275.37 146.57Z" fill="#231815"/>
<path d="M268.14 148.57C270.59 156.15 280.95 154.76 282.74 148.81C285.316 149.877 287.779 151.2 290.09 152.76C294.378 155.657 298.079 159.338 301 163.61C302.442 161.335 303.744 158.974 304.9 156.54C311.496 164.725 315.263 174.825 315.64 185.33C316.33 206.21 303 225.2 283.58 232.42C275.58 235.42 267.27 235.31 258.88 235.31H160.45C149.7 235.31 139.45 233.95 129.67 229.02C122.957 225.554 116.999 220.788 112.144 214.999C107.289 209.211 103.634 202.514 101.39 195.3H109.27C107.525 190.482 106.546 185.421 106.37 180.3C106.37 179.69 106.37 179.08 106.37 178.47C106.37 165.384 111.568 152.834 120.821 143.581C130.074 134.328 142.624 129.13 155.71 129.13C160.873 129.142 166.004 129.952 170.92 131.53C176.691 122.845 184.682 115.862 194.062 111.306C203.442 106.75 213.87 104.787 224.265 105.62C234.66 106.454 244.642 110.054 253.177 116.046C261.711 122.039 268.486 130.206 272.8 139.7C271.195 140.46 269.876 141.713 269.036 143.277C268.195 144.841 267.878 146.633 268.13 148.39C265.272 139.655 260.136 131.84 253.25 125.753C246.365 119.665 237.979 115.525 228.96 113.76C209.21 109.89 188.66 118.83 177.39 135.31C175.54 138.02 172.27 139.78 168.92 138.76C151.49 133.44 131.99 139.07 121.46 154.4C117.052 160.673 114.452 168.036 113.944 175.686C113.436 183.336 115.039 190.979 118.578 197.78C122.118 204.58 127.457 210.278 134.014 214.252C140.571 218.225 148.093 220.321 155.76 220.31C160.36 220.36 164.96 220.31 169.55 220.31H260C266.28 220.31 272.35 220.51 278.41 218.4C292.27 213.57 301.18 199.85 300.69 185.33C300.16 169.59 288.4 157.12 273.39 153.8C272.045 153.584 270.805 152.941 269.853 151.967C268.901 150.993 268.286 149.739 268.1 148.39L268.14 148.57Z" fill="#231815"/>
<path d="M263.18 66.6C266.12 75.83 251.64 79.75 248.72 70.6C248.72 70.53 248.67 70.46 248.65 70.39C247.99 65.71 251.82 60.06 257.95 61.39C259.2 61.66 260.45 61.97 261.69 62.31C262.22 63.71 262.72 65.14 263.18 66.6Z" fill="#231815"/>
<path d="M254 75.82C252.643 75.6116 251.391 74.967 250.433 73.9837C249.475 73.0004 248.863 71.7319 248.69 70.37C248.69 70.44 248.74 70.51 248.76 70.58C251.68 79.75 266.16 75.83 263.22 66.58C262.76 65.12 262.22 63.69 261.73 62.26C266.787 63.6403 271.672 65.5894 276.29 68.07C299.93 80.83 314.29 107.76 311.29 134.5C310.441 142.136 308.308 149.574 304.98 156.5C301.657 152.362 297.689 148.787 293.23 145.91C296.012 138.47 297.118 130.507 296.47 122.59C294.52 99.28 276.42 80.65 254 75.82Z" fill="#231815" stroke="#231815"/>
<path d="M167.813 123.498C168.988 123.755 170.161 124.041 171.33 124.365L164.204 127.226L163.947 127.329L163.898 127.601L163.518 129.711L163.428 130.21L163.928 130.293C166.228 130.678 168.497 131.233 170.715 131.955L171.076 132.073L171.286 131.757C177.008 123.146 184.93 116.222 194.23 111.705C203.53 107.188 213.87 105.242 224.175 106.069C234.481 106.895 244.378 110.464 252.839 116.405C261.301 122.347 268.018 130.444 272.295 139.857L272.494 140.296L272.94 140.112C274.304 139.55 275.81 139.433 277.244 139.776L277.244 139.776C278.498 140.075 279.716 140.392 280.921 140.767L281.922 141.079L281.535 140.105C273.127 118.959 254.433 102.42 231.595 98.5172C219.73 96.4568 207.53 97.6128 196.264 101.865C184.997 106.117 175.075 113.311 167.53 122.697L167.024 123.326L167.813 123.498Z" fill="#231815" stroke="#231815"/>
<path d="M172.86 124.29L164.39 127.74C165.51 126.1 166.687 124.523 167.92 123.01C169.57 123.37 171.22 123.79 172.86 124.29Z" fill="#231815"/>
<path d="M109.27 195.3H101.39C100.58 192.711 99.9712 190.063 99.57 187.38C99.2192 185.035 99.0121 182.67 98.95 180.3H106.37C106.546 185.421 107.525 190.482 109.27 195.3Z" fill="#231815"/>
<path d="M104.59 39.2799L96.1199 42.7199C97.2332 41.0799 98.3899 39.4732 99.5899 37.8999C101.27 38.2999 102.93 38.7599 104.59 39.2799Z" fill="#231815"/>
<path d="M248.65 70.37C244.296 56.9036 236.412 44.8502 225.82 35.464C215.227 26.0779 202.312 19.7021 188.42 17C157.99 11.1 126.36 24.78 109.07 50.28C107.23 52.99 103.93 54.77 100.6 53.73C93.5793 51.4829 86.2408 50.3887 78.87 50.49C61.815 50.9105 45.6112 58.0285 33.7639 70.3042C21.9166 82.5798 15.3785 99.0262 15.5638 116.085C15.7491 133.144 22.643 149.445 34.7541 161.46C46.8653 173.476 63.2199 180.24 80.28 180.29C86.5 180.35 92.72 180.29 98.95 180.29C99.0121 182.66 99.2192 185.025 99.57 187.37C99.9712 190.053 100.58 192.701 101.39 195.29H88.09C73.77 195.29 60.09 193.93 46.79 187.91C23.11 177.19 5.47997 154.16 1.47997 128.45C-2.63003 102.06 6.28996 74.76 26.14 56.62C35.9191 47.7317 47.7282 41.3766 60.5333 38.1113C73.3384 34.846 86.7487 34.77 99.59 37.89C98.39 39.4633 97.2333 41.07 96.12 42.71L104.59 39.27C102.93 38.75 101.27 38.27 99.59 37.89C112.33 20.9006 130.5 8.78281 151.081 3.55075C171.662 -1.6813 193.413 0.287529 212.72 9.12998C235.56 19.33 253.06 39.01 261.72 62.27C260.48 61.93 259.23 61.62 257.98 61.35C251.82 60 248 65.69 248.65 70.37Z" fill="#231815"/>
<path d="M98.5001 180.317L98.9998 180.308V180.79H106.32H106.82V180.29V178.46C106.82 165.507 111.965 153.084 121.125 143.925C130.284 134.766 142.707 129.62 155.66 129.62L155.661 129.62C158.43 129.615 161.195 129.854 163.923 130.332L164.414 130.418L164.502 129.929L164.863 127.924C165.964 126.321 167.112 124.784 168.308 123.316L168.824 122.681L168.024 122.511C159.061 120.601 149.774 120.837 140.919 123.2C132.065 125.563 123.895 129.986 117.076 136.108L117.076 136.108L117.072 136.112C110.973 141.706 106.156 148.552 102.95 156.182C99.7446 163.812 98.2266 172.045 98.5001 180.317Z" fill="#231815" stroke="#231815"/>
<path d="M99.59 37.9C86.7487 34.78 73.3384 34.856 60.5333 38.1213C47.7282 41.3867 35.9191 47.7417 26.14 56.63C6.28996 74.77 -2.63003 102.07 1.47997 128.46C5.47997 154.17 23.11 177.2 46.79 187.92C60.07 193.92 73.79 195.3 88.09 195.3H101.39" stroke="#231815" stroke-miterlimit="10"/>
<path d="M99.5899 37.8999C101.27 38.2999 102.93 38.7599 104.59 39.2799L96.1199 42.7199C97.2332 41.0799 98.3899 39.4732 99.5899 37.8999Z" stroke="#231815" stroke-miterlimit="10"/>
<path d="M261.69 62.28C253.06 39.02 235.56 19.34 212.69 9.14001C193.387 0.305324 171.642 -1.65931 151.067 3.57247C130.493 8.80425 112.328 20.9175 99.5898 37.9" stroke="#231815" stroke-miterlimit="10"/>
<path d="M98.9999 180.3C92.7699 180.3 86.5499 180.36 80.3299 180.3C63.2698 180.25 46.9152 173.486 34.804 161.47C22.6929 149.455 15.799 133.154 15.6137 116.095C15.4284 99.0362 21.9666 82.5898 33.8138 70.3142C45.6611 58.0385 61.8649 50.9205 78.9199 50.5C86.2907 50.3987 93.6292 51.4929 100.65 53.74C103.98 54.74 107.28 53 109.12 50.29C126.41 24.79 158.04 11.11 188.47 17.01C202.361 19.7112 215.275 26.0856 225.867 35.4698C236.46 44.8541 244.344 56.9055 248.7 70.37" stroke="#231815" stroke-miterlimit="10"/>
<path d="M248.65 70.37C248.823 71.7319 249.435 73.0004 250.393 73.9837C251.351 74.967 252.603 75.6116 253.96 75.82C276.42 80.65 294.52 99.28 296.42 122.63C297.068 130.547 295.962 138.51 293.18 145.95" stroke="#231815" stroke-miterlimit="10"/>
<path d="M304.93 156.54C308.258 149.614 310.391 142.176 311.24 134.54C314.24 107.8 299.89 80.8699 276.24 68.1099C271.622 65.6293 266.737 63.6802 261.68 62.2999" stroke="#231815" stroke-miterlimit="10"/>
<path d="M248.65 70.37C248.65 70.44 248.7 70.51 248.72 70.58C251.64 79.75 266.12 75.83 263.18 66.58C262.72 65.12 262.18 63.69 261.69 62.26C260.45 61.92 259.2 61.61 257.95 61.34C251.82 60 248 65.69 248.65 70.37Z" stroke="#231815" stroke-miterlimit="10"/>
<path d="M268.08 148.39L268.14 148.57C270.59 156.15 280.95 154.76 282.74 148.81C283.131 147.419 283.082 145.942 282.6 144.58C282.14 143.14 281.63 141.72 281.07 140.32C272.72 119.32 254.16 102.91 231.51 99.04C219.733 96.9947 207.623 98.1421 196.44 102.363C185.257 106.584 175.409 113.724 167.92 123.04C166.693 124.547 165.517 126.123 164.39 127.77L172.86 124.32C171.22 123.82 169.57 123.4 167.92 123.04C159.027 121.137 149.811 121.365 141.023 123.706C132.236 126.047 124.127 130.435 117.36 136.51C111.327 142.057 106.563 148.841 103.395 156.399C100.226 163.956 98.7268 172.109 98.9999 180.3C99.062 182.67 99.2691 185.035 99.6199 187.38C100.021 190.063 100.63 192.711 101.44 195.3C103.68 202.506 107.329 209.196 112.175 214.981C117.021 220.766 122.968 225.531 129.67 229C139.44 233.93 149.67 235.29 160.45 235.29H258.91C267.3 235.29 275.58 235.39 283.61 232.4C303.03 225.18 316.36 206.19 315.67 185.31C315.293 174.805 311.525 164.705 304.93 156.52C301.607 152.382 297.639 148.807 293.18 145.93C289.424 143.5 285.348 141.605 281.07 140.3C279.85 139.92 278.62 139.6 277.36 139.3C275.824 138.932 274.21 139.058 272.75 139.66C271.145 140.42 269.826 141.673 268.986 143.237C268.145 144.801 267.828 146.593 268.08 148.35" stroke="#231815" stroke-miterlimit="10"/>
<path d="M268.08 148.39C268.266 149.739 268.881 150.993 269.833 151.967C270.785 152.941 272.025 153.584 273.37 153.8C288.37 157.12 300.14 169.59 300.67 185.33C301.16 199.85 292.25 213.57 278.39 218.4C272.33 220.51 266.26 220.31 259.98 220.31H169.5C164.91 220.31 160.31 220.36 155.71 220.31C148.043 220.321 140.521 218.225 133.964 214.252C127.407 210.278 122.068 204.58 118.528 197.779C114.989 190.979 113.386 183.336 113.894 175.686C114.402 168.036 117.002 160.673 121.41 154.4C131.94 139.07 151.41 133.4 168.87 138.76C172.22 139.76 175.49 138.02 177.34 135.31C188.61 118.83 209.16 109.89 228.91 113.76C237.93 115.525 246.315 119.665 253.2 125.753C260.086 131.84 265.222 139.655 268.08 148.39V148.39Z" stroke="#231815" stroke-miterlimit="10"/>
</svg>
