<svg width="270" height="178" viewBox="0 0 270 178" fill="none" xmlns="http://www.w3.org/2000/svg">
<path d="M210.57 162.16C223.398 162.164 235.771 157.404 245.288 148.802C254.805 140.2 260.788 128.37 262.076 115.606C263.364 102.843 259.865 90.0556 252.259 79.7255C244.653 69.3955 233.481 62.2589 220.91 59.7C216.788 46.3791 208.972 34.5008 198.369 25.4441C187.766 16.3875 174.812 10.524 161.011 8.53461C147.209 6.54518 133.127 8.51136 120.398 14.2049C107.669 19.8984 96.8165 29.0856 89.1 40.7C80.5419 37.9224 71.4834 37.0333 62.5487 38.094C53.6139 39.1547 45.0153 42.1399 37.3455 46.844C29.6757 51.5481 23.1169 57.8592 18.1212 65.3424C13.1255 72.8256 9.81169 81.3029 8.40804 90.1903C7.00439 99.0776 7.54432 108.164 9.99062 116.822C12.4369 125.481 16.7314 133.506 22.5782 140.345C28.4249 147.184 35.6849 152.674 43.8579 156.436C52.0309 160.199 60.9225 162.145 69.92 162.14" fill="white"/>
<path d="M210.57 169.66C225.038 169.507 238.962 164.123 249.769 154.502C260.576 144.881 267.535 131.673 269.36 117.32C273.06 87.32 252.36 58.85 222.9 52.46L228.14 57.7C219.07 29.31 194.97 6.88998 165.33 1.69998C149.611 -1.06604 133.426 0.792693 118.744 7.05035C104.061 13.308 91.5113 23.6952 82.6199 36.95L91.0899 33.5C59.6899 23.81 24.7399 37.27 8.82994 66.27C-6.33006 93.92 -0.790054 129.64 22.4899 151.06C35.4458 162.923 52.3438 169.554 69.9099 169.67C79.5699 169.78 79.5699 154.78 69.9099 154.67C45.4099 154.4 23.5499 138.07 17.0699 114.27C13.9824 102.585 14.8136 90.21 19.4361 79.043C24.0586 67.8761 32.2171 58.534 42.6599 52.45C56.2399 44.62 72.1999 43.36 87.0899 47.96C90.4299 48.96 93.7199 47.22 95.5599 44.51C110.22 23 137 11.37 162.73 16.4C174.496 18.7042 185.429 24.1212 194.39 32.0868C203.351 40.0524 210.012 50.2751 213.68 61.69C214.028 62.9406 214.694 64.0801 215.612 64.9981C216.53 65.9162 217.669 66.5816 218.92 66.93C241.45 71.82 257.42 92.68 254.53 115.93C251.79 138.02 232.53 154.34 210.53 154.63C200.89 154.76 200.86 169.76 210.53 169.63L210.57 169.66Z" fill="#231815"/>
<path d="M112.2 168.21L104.83 149C103.38 145.22 99.8298 142.61 95.5998 143.76C91.9898 144.76 88.8998 149.18 90.3598 152.99L97.7298 172.19C99.1798 175.97 102.73 178.58 106.96 177.43C110.57 176.43 113.66 172.01 112.2 168.2V168.21Z" fill="#334595"/>
<path d="M150.16 168.21L142.79 149C141.34 145.22 137.79 142.61 133.56 143.76C129.95 144.76 126.86 149.18 128.32 152.99L135.69 172.19C137.14 175.97 140.69 178.58 144.92 177.43C148.53 176.43 151.62 172.01 150.16 168.2V168.21Z" fill="#334595"/>
<path d="M188.12 168.21L180.75 149C179.3 145.22 175.75 142.61 171.52 143.76C167.91 144.76 164.82 149.18 166.28 152.99L173.65 172.19C175.1 175.97 178.65 178.58 182.88 177.43C186.49 176.43 189.58 172.01 188.12 168.2V168.21Z" fill="#334595"/>
</svg>
