<svg width="111" height="58" viewBox="0 0 111 58" fill="none" xmlns="http://www.w3.org/2000/svg">
<rect width="111" height="58" rx="10" fill="#EFF2F7"/>
<path d="M55.5156 46.8906C54.8828 47.5938 53.957 48.1602 52.7383 48.5898C51.5195 49.0195 50.1836 49.2344 48.7305 49.2344C46.4961 49.2344 44.7109 48.5508 43.375 47.1836C42.0391 45.8164 41.3242 43.9141 41.2305 41.4766L41.2188 40C41.2188 38.3203 41.5156 36.8555 42.1094 35.6055C42.7031 34.3477 43.5508 33.3828 44.6523 32.7109C45.7617 32.0312 47.043 31.6914 48.4961 31.6914C50.6211 31.6914 52.2695 32.1797 53.4414 33.1562C54.6211 34.125 55.3086 35.5742 55.5039 37.5039H51.543C51.4023 36.5508 51.0977 35.8711 50.6289 35.4648C50.1602 35.0586 49.4961 34.8555 48.6367 34.8555C47.6055 34.8555 46.8086 35.293 46.2461 36.168C45.6836 37.043 45.3984 38.293 45.3906 39.918V40.9492C45.3906 42.6523 45.6797 43.9336 46.2578 44.793C46.8438 45.6445 47.7617 46.0703 49.0117 46.0703C50.082 46.0703 50.8789 45.832 51.4023 45.3555V42.707H48.543V39.8828H55.5156V46.8906ZM68.6523 42.2031H62.0195V49H57.9062V31.9375H69.3203V35.1133H62.0195V39.0391H68.6523V42.2031Z" fill="#243065"/>
<path d="M23.7676 18.4824H22.0977V23H19.0127V10.2031H24.0488C25.5664 10.2031 26.7529 10.54 27.6084 11.2139C28.4639 11.8877 28.8916 12.8398 28.8916 14.0703C28.8916 14.9609 28.71 15.6992 28.3467 16.2852C27.9893 16.8711 27.4268 17.3457 26.6592 17.709L29.3311 22.8682V23H26.0264L23.7676 18.4824ZM22.0977 16.1006H24.0488C24.6348 16.1006 25.0742 15.9482 25.3672 15.6436C25.666 15.333 25.8154 14.9023 25.8154 14.3516C25.8154 13.8008 25.666 13.3701 25.3672 13.0596C25.0684 12.7432 24.6289 12.585 24.0488 12.585H22.0977V16.1006ZM38.6914 17.5771H33.8398V20.627H39.5703V23H30.7549V10.2031H39.5879V12.585H33.8398V15.2832H38.6914V17.5771ZM51.6816 16.8652C51.6816 18.0488 51.4854 19.083 51.0928 19.9678C50.7002 20.8467 50.1582 21.5527 49.4668 22.0859L51.5322 23.7207L49.625 25.3379L46.874 23.123C46.6162 23.1582 46.3584 23.1758 46.1006 23.1758C45.0107 23.1758 44.0439 22.9238 43.2002 22.4199C42.3564 21.916 41.6973 21.1953 41.2227 20.2578C40.7539 19.3203 40.5107 18.2422 40.4932 17.0234V16.3467C40.4932 15.0869 40.7217 13.9795 41.1787 13.0244C41.6416 12.0693 42.2979 11.3311 43.1475 10.8096C44.0029 10.2881 44.9814 10.0273 46.083 10.0273C47.167 10.0273 48.1338 10.2852 48.9834 10.8008C49.833 11.3164 50.4922 12.0518 50.9609 13.0068C51.4355 13.9561 51.6758 15.0459 51.6816 16.2764V16.8652ZM48.5439 16.3291C48.5439 15.0576 48.3301 14.0938 47.9023 13.4375C47.4805 12.7754 46.874 12.4443 46.083 12.4443C45.2686 12.4443 44.6562 12.7695 44.2461 13.4199C43.8359 14.0703 43.6279 15.0225 43.6221 16.2764V16.8652C43.6221 18.125 43.8301 19.0918 44.2461 19.7656C44.6621 20.4336 45.2803 20.7676 46.1006 20.7676C46.8857 20.7676 47.4863 20.4365 47.9023 19.7744C48.3242 19.1123 48.5381 18.1602 48.5439 16.918V16.3291ZM63.292 10.2031V18.5791C63.292 19.5283 63.0898 20.3516 62.6855 21.0488C62.2812 21.7402 61.7012 22.2676 60.9453 22.6309C60.1895 22.9941 59.2959 23.1758 58.2646 23.1758C56.7061 23.1758 55.4785 22.7715 54.582 21.9629C53.6855 21.1543 53.2285 20.0469 53.2109 18.6406V10.2031H56.3135V18.7021C56.3486 20.1025 56.999 20.8027 58.2646 20.8027C58.9033 20.8027 59.3867 20.627 59.7148 20.2754C60.043 19.9238 60.207 19.3525 60.207 18.5615V10.2031H63.292ZM73.1621 17.5771H68.3105V20.627H74.041V23H65.2256V10.2031H74.0586V12.585H68.3105V15.2832H73.1621V17.5771ZM81.8984 19.5986C81.8984 19.1475 81.7373 18.7959 81.415 18.5439C81.0986 18.292 80.5391 18.0312 79.7363 17.7617C78.9336 17.4922 78.2773 17.2314 77.7676 16.9795C76.1094 16.165 75.2803 15.0459 75.2803 13.6221C75.2803 12.9131 75.4854 12.2891 75.8955 11.75C76.3115 11.2051 76.8975 10.7832 77.6533 10.4844C78.4092 10.1797 79.2588 10.0273 80.2021 10.0273C81.1221 10.0273 81.9453 10.1914 82.6719 10.5195C83.4043 10.8477 83.9727 11.3164 84.377 11.9258C84.7812 12.5293 84.9834 13.2207 84.9834 14H81.9072C81.9072 13.4785 81.7461 13.0742 81.4238 12.7871C81.1074 12.5 80.6768 12.3564 80.1318 12.3564C79.5811 12.3564 79.1445 12.4795 78.8223 12.7256C78.5059 12.9658 78.3477 13.2734 78.3477 13.6484C78.3477 13.9766 78.5234 14.2754 78.875 14.5449C79.2266 14.8086 79.8447 15.084 80.7295 15.3711C81.6143 15.6523 82.3408 15.957 82.9092 16.2852C84.292 17.082 84.9834 18.1807 84.9834 19.5811C84.9834 20.7002 84.5615 21.5791 83.7178 22.2178C82.874 22.8564 81.7168 23.1758 80.2461 23.1758C79.209 23.1758 78.2686 22.9912 77.4248 22.6221C76.5869 22.2471 75.9541 21.7373 75.5264 21.0928C75.1045 20.4424 74.8936 19.6953 74.8936 18.8516H77.9873C77.9873 19.5371 78.1631 20.0439 78.5146 20.3721C78.8721 20.6943 79.4492 20.8555 80.2461 20.8555C80.7559 20.8555 81.1572 20.7471 81.4502 20.5303C81.749 20.3076 81.8984 19.9971 81.8984 19.5986ZM96.6113 12.585H92.7705V23H89.6855V12.585H85.915V10.2031H96.6113V12.585Z" fill="#243065"/>
</svg>
