<svg width="68" height="68" viewBox="0 0 68 68" fill="none" xmlns="http://www.w3.org/2000/svg">
<circle cx="34" cy="34" r="34" fill="#EFF2F7"/>
<path d="M33.2734 43.8359C32.3242 44.8906 30.9355 45.7402 29.1074 46.3848C27.2793 47.0293 25.2754 47.3516 23.0957 47.3516C19.7441 47.3516 17.0664 46.3262 15.0625 44.2754C13.0586 42.2246 11.9863 39.3711 11.8457 35.7148L11.8281 33.5C11.8281 30.9805 12.2734 28.7832 13.1641 26.9082C14.0547 25.0215 15.3262 23.5742 16.9785 22.5664C18.6426 21.5469 20.5645 21.0371 22.7441 21.0371C25.9316 21.0371 28.4043 21.7695 30.1621 23.2344C31.9316 24.6875 32.9629 26.8613 33.2559 29.7559H27.3145C27.1035 28.3262 26.6465 27.3066 25.9434 26.6973C25.2402 26.0879 24.2441 25.7832 22.9551 25.7832C21.4082 25.7832 20.2129 26.4395 19.3691 27.752C18.5254 29.0645 18.0977 30.9395 18.0859 33.377V34.9238C18.0859 37.4785 18.5195 39.4004 19.3867 40.6895C20.2656 41.9668 21.6426 42.6055 23.5176 42.6055C25.123 42.6055 26.3184 42.248 27.1035 41.5332V37.5605H22.8145V33.3242H33.2734V43.8359ZM52.9785 36.8047H43.0293V47H36.8594V21.4062H53.9805V26.1699H43.0293V32.0586H52.9785V36.8047Z" fill="#243065"/>
</svg>
