<svg width="68" height="68" viewBox="0 0 68 68" fill="none" xmlns="http://www.w3.org/2000/svg">
<path d="M34 5.66667C49.623 5.66667 62.3333 18.377 62.3333 34C62.3333 49.623 49.623 62.3333 34 62.3333C18.377 62.3333 5.66667 49.623 5.66667 34C5.66667 18.377 18.377 5.66667 34 5.66667ZM34 0C15.2235 0 0 15.2235 0 34C0 52.7765 15.2235 68 34 68C52.7765 68 68 52.7765 68 34C68 15.2235 52.7765 0 34 0ZM28.8037 27.4437L17 29.0728L25.5907 37.3292L23.494 49.0563L34 43.4407L44.506 49.0592L42.4093 37.332L51 29.0728L39.1963 27.4437L34 16.7223L28.8037 27.4437V27.4437Z" fill="#232E67"/>
</svg>
