<svg width="270" height="202" viewBox="0 0 270 202" fill="none" xmlns="http://www.w3.org/2000/svg">
<path d="M210.57 162.22C223.398 162.224 235.771 157.464 245.288 148.862C254.805 140.26 260.788 128.43 262.076 115.666C263.364 102.903 259.865 90.1156 252.259 79.7856C244.653 69.4556 233.481 62.3189 220.91 59.76C216.788 46.4392 208.972 34.5608 198.369 25.5042C187.766 16.4475 174.812 10.5841 161.011 8.59467C147.209 6.60524 133.127 8.5714 120.398 14.2649C107.669 19.9584 96.8165 29.1457 89.1 40.76C80.5419 37.9824 71.4834 37.0933 62.5487 38.154C53.6139 39.2147 45.0153 42.2 37.3455 46.9041C29.6757 51.6082 23.1169 57.9193 18.1212 65.4025C13.1255 72.8856 9.81169 81.363 8.40804 90.2503C7.00439 99.1377 7.54432 108.224 9.99062 116.882C12.4369 125.541 16.7314 133.566 22.5782 140.405C28.4249 147.244 35.6849 152.734 43.8579 156.496C52.0309 160.259 60.9225 162.205 69.92 162.2" fill="white"/>
<path d="M210.57 169.72C225.038 169.567 238.962 164.183 249.769 154.562C260.576 144.941 267.535 131.733 269.36 117.38C273.06 87.38 252.36 58.91 222.9 52.52L228.14 57.76C219.07 29.37 194.97 6.94999 165.33 1.75999C149.612 -1.00705 133.428 0.850172 118.745 7.10602C104.063 13.3619 91.5126 23.7471 82.6199 37L91.0899 33.55C59.6899 23.86 24.7399 37.32 8.82994 66.32C-6.33006 93.97 -0.790054 129.69 22.4899 151.11C35.4458 162.973 52.3438 169.604 69.9099 169.72C79.5699 169.83 79.5699 154.83 69.9099 154.72C45.4099 154.45 23.5499 138.12 17.0699 114.32C13.9824 102.635 14.8136 90.26 19.4361 79.093C24.0586 67.9261 32.2171 58.584 42.6599 52.5C56.2399 44.67 72.1999 43.41 87.0899 48.01C90.4299 49.01 93.7199 47.27 95.5599 44.56C110.2 23.02 136.98 11.42 162.71 16.46C174.476 18.7642 185.409 24.1813 194.37 32.1468C203.331 40.1124 209.992 50.3351 213.66 61.75C214.008 63.0006 214.674 64.1402 215.592 65.0582C216.51 65.9762 217.649 66.6416 218.9 66.99C241.43 71.88 257.4 92.74 254.51 115.99C251.77 138.08 232.51 154.4 210.51 154.69C200.87 154.82 200.84 169.82 210.51 169.69L210.57 169.72Z" fill="#231815"/>
<path d="M105.2 149.27L97.8298 130.07C96.3798 126.29 92.8298 123.68 88.5998 124.83C84.9898 125.83 81.8998 130.25 83.3598 134.06L90.7298 153.26C92.1798 157.04 95.7298 159.65 99.9598 158.5C103.57 157.5 106.66 153.08 105.2 149.27Z" fill="#334595"/>
<path d="M121.67 192.15L114.3 172.95C112.85 169.17 109.3 166.56 105.07 167.71C101.46 168.71 98.37 173.13 99.83 176.94L107.2 196.14C108.65 199.92 112.2 202.53 116.43 201.38C120.04 200.38 123.13 195.96 121.67 192.15Z" fill="#334595"/>
<path d="M143.16 149.27L135.79 130.07C134.34 126.29 130.79 123.68 126.56 124.83C122.95 125.83 119.86 130.25 121.32 134.06L128.69 153.26C130.14 157.04 133.69 159.65 137.92 158.5C141.53 157.5 144.62 153.08 143.16 149.27Z" fill="#334595"/>
<path d="M159.63 192.15L152.26 172.95C150.81 169.17 147.26 166.56 143.03 167.71C139.42 168.71 136.33 173.13 137.79 176.94L145.16 196.14C146.61 199.92 150.16 202.53 154.39 201.38C158 200.38 161.09 195.96 159.63 192.15Z" fill="#334595"/>
<path d="M181.12 149.27L173.75 130.07C172.3 126.29 168.75 123.68 164.52 124.83C160.91 125.83 157.82 130.25 159.28 134.06L166.65 153.26C168.1 157.04 171.65 159.65 175.88 158.5C179.49 157.5 182.58 153.08 181.12 149.27Z" fill="#334595"/>
<path d="M197.59 192.15L190.22 172.95C188.77 169.17 185.22 166.56 180.99 167.71C177.38 168.71 174.29 173.13 175.75 176.94L183.12 196.14C184.57 199.92 188.12 202.53 192.35 201.38C195.96 200.38 199.05 195.96 197.59 192.15Z" fill="#334595"/>
</svg>
