<svg width="270" height="224" viewBox="0 0 270 224" fill="none" xmlns="http://www.w3.org/2000/svg">
<path d="M210.57 162.69C223.398 162.694 235.771 157.934 245.288 149.332C254.805 140.73 260.788 128.9 262.076 116.136C263.364 103.373 259.865 90.5856 252.259 80.2556C244.653 69.9256 233.481 62.7889 220.91 60.23C216.788 46.9092 208.972 35.0308 198.369 25.9742C187.766 16.9175 174.812 11.0541 161.011 9.06464C147.209 7.07521 133.127 9.04139 120.398 14.7349C107.669 20.4284 96.8165 29.6157 89.1 41.23C80.5419 38.4524 71.4834 37.5633 62.5487 38.624C53.6139 39.6847 45.0153 42.67 37.3455 47.3741C29.6757 52.0782 23.1169 58.3893 18.1212 65.8724C13.1255 73.3556 9.81169 81.833 8.40804 90.7203C7.00439 99.6077 7.54432 108.694 9.99062 117.352C12.4369 126.011 16.7314 134.036 22.5782 140.875C28.4249 147.714 35.6849 153.204 43.8579 156.966C52.0309 160.729 60.9225 162.675 69.92 162.67" fill="white"/>
<path d="M210.57 170.19C225.038 170.037 238.962 164.653 249.769 155.032C260.576 145.411 267.535 132.203 269.36 117.85C273.06 87.85 252.36 59.38 222.9 52.99L228.14 58.23C219.07 29.84 194.97 7.42001 165.33 2.23001C149.611 -0.536012 133.426 1.32272 118.744 7.58038C104.061 13.838 91.5113 24.2253 82.6199 37.48L91.0899 34.03C59.6899 24.34 24.7399 37.8 8.82994 66.8C-6.33006 94.45 -0.790054 130.17 22.4899 151.59C35.4458 163.453 52.3438 170.085 69.9099 170.2C79.5699 170.31 79.5699 155.31 69.9099 155.2C45.4099 154.93 23.5499 138.6 17.0699 114.8C13.9881 103.117 14.8232 90.7455 19.4474 79.5826C24.0715 68.4197 32.2293 59.0816 42.6699 53C56.2499 45.17 72.2099 43.91 87.0999 48.51C90.4399 49.51 93.7299 47.77 95.5699 45.06C110.21 23.52 136.99 11.92 162.72 16.96C174.486 19.2642 185.419 24.6813 194.38 32.6469C203.341 40.6124 210.002 50.8351 213.67 62.25C214.018 63.5007 214.684 64.6402 215.602 65.5582C216.52 66.4762 217.659 67.1416 218.91 67.49C241.44 72.38 257.41 93.24 254.52 116.49C251.78 138.58 232.52 154.9 210.52 155.19C200.88 155.32 200.85 170.32 210.52 170.19H210.57Z" fill="#231815"/>
<path d="M190.79 182.91L186.15 180.23L189.29 178.4C197.63 173.55 190.09 160.58 181.72 165.4L173.27 170.31C172.61 170.69 171.87 171.08 171.09 171.49L168.09 169.76V155.35L171.09 153.61C171.85 154.01 172.6 154.4 173.27 154.79L181.72 159.7C190.08 164.56 197.64 151.6 189.29 146.7L186.15 144.87L189.15 143.15L191.02 142.07C197.77 138.17 194.14 128.96 188.07 128.07C187.552 128.008 187.028 128.008 186.51 128.07C185.427 128.181 184.381 128.522 183.44 129.07L178.67 131.83C178.67 130.63 178.67 129.43 178.67 128.23C178.67 128 178.67 127.77 178.67 127.55C178.04 119.65 166.88 118.88 164.26 125.27C163.874 126.222 163.684 127.243 163.7 128.27V138.04C163.7 138.78 163.7 139.61 163.63 140.46V140.56L159.79 142.78L153.6 139.21C152.6 138.6 151.36 137.8 150.09 136.97C149.45 136.55 148.78 136.12 148.09 135.71V131.61C148.85 131.13 149.59 130.66 150.27 130.27L158.74 125.41C159.26 125.114 159.746 124.762 160.19 124.36C166.1 118.97 159.01 107.96 151.19 112.46L148.1 114.23V109C148.1 99.35 133.1 99.33 133.1 109V114.32L130 112.51C122.78 108.37 116.17 117.4 119.83 123.06C120.489 124.061 121.381 124.888 122.43 125.47L130.9 130.33C131.58 130.72 132.32 131.19 133.08 131.67V135.92C131.31 137.02 129.63 138.2 128.21 139.02L121.5 142.9L117.56 140.62C117.56 139.74 117.49 138.89 117.49 138.1V128.33C117.49 118.68 102.49 118.66 102.49 128.33C102.49 129.53 102.49 130.73 102.49 131.93L97.7199 129.17C89.3399 124.34 81.7799 137.29 90.1499 142.17L94.9899 144.97L91.8499 146.8C83.5099 151.65 91.0499 164.62 99.4199 159.8L107.87 154.89C108.53 154.51 109.27 154.12 110.05 153.71L113.25 155.56V169.79L110.05 171.64C109.29 171.24 108.54 170.85 107.87 170.46L99.4199 165.55C91.0599 160.69 83.4999 173.65 91.8499 178.55L94.9899 180.38L90.3499 183.06C81.9899 187.89 89.5399 200.85 97.9199 196.06L102.5 193.42C102.5 194.62 102.5 195.82 102.5 197.02C102.5 206.67 117.5 206.69 117.5 197.02V187.25C117.5 186.48 117.5 185.62 117.57 184.73L119.93 183.37L127.8 187.91C129.33 188.79 131.16 190.1 133.1 191.29V193.68C132.34 194.16 131.6 194.63 130.92 195.02L122.45 199.88C114.08 204.68 121.63 217.65 130.02 212.88L133.11 211.11V216.66C133.11 226.31 148.11 226.33 148.11 216.66V211.11L151.2 212.88C159.59 217.69 167.2 204.74 158.77 199.88L150.3 195.02C149.62 194.63 148.88 194.16 148.12 193.68V191.37C149.97 190.23 151.72 188.99 153.19 188.14L161.38 183.41L163.65 184.72C163.65 185.6 163.72 186.45 163.72 187.24V197.01C163.72 206.66 178.72 206.68 178.72 197.01C178.72 195.81 178.72 194.61 178.72 193.41L183.3 196.05C191.59 200.7 199.15 187.74 190.79 182.91ZM140.67 177.83L140.57 177.77L134.91 174.5L133.07 173.44L128.25 170.66V156.32L128.99 155.89L133.07 153.53L136.49 151.53L140.57 149.17L140.67 149.11L144.75 151.47L148.07 153.39L152.25 155.8L153.09 156.28V170.62L148.09 173.52L146.35 174.52L140.67 177.83Z" fill="#334595"/>
</svg>
