<svg width="272" height="245" viewBox="0 0 272 245" fill="none" xmlns="http://www.w3.org/2000/svg">
<path d="M178.48 13C177.915 14.0832 177.623 15.2882 177.63 16.51C177.63 15.2 177.58 13.91 177.51 12.62L178.48 13Z" fill="#231815"/>
<path d="M21.5501 50.76C22.636 53.1521 23.8408 55.4883 25.1601 57.76C21.5024 61.7182 18.3699 66.1312 15.8401 70.89C14.8401 69.45 13.9001 67.99 12.9801 66.48C12.4101 65.54 11.8701 64.59 11.3301 63.63C14.2025 58.9417 17.6344 54.6199 21.5501 50.76Z" fill="#231815"/>
<path d="M176.62 4.36998C177.047 7.08998 177.343 9.84998 177.51 12.65C162.968 7.15886 147.062 6.40306 132.065 10.4905C117.068 14.5779 103.745 23.2996 94 35.41L92 33.58C90.35 33.07 88.69 32.64 87 32.26C96.1864 20.4578 108.417 11.3834 122.375 6.01288C136.333 0.642349 151.492 -0.821088 166.22 1.77999C169.744 2.39447 173.219 3.26 176.62 4.36998Z" fill="#231815"/>
<path d="M229.07 57.7999L223.83 52.5599C225.09 52.8299 226.33 53.1599 227.56 53.5099C228.09 54.9299 228.61 56.3499 229.07 57.7999Z" fill="#231815"/>
<path d="M13.0003 66.5C13.9203 68.01 14.8803 69.5 15.8603 70.91C10.8414 80.3931 8.35952 91.0127 8.6557 101.738C8.95189 112.463 12.0161 122.93 17.5507 132.121C23.0854 141.313 30.9026 148.917 40.2433 154.196C49.5841 159.475 60.131 162.25 70.8603 162.25H78.1003C78.1003 166.03 75.7203 169.81 70.8603 169.75C53.2933 169.639 36.3937 163.007 23.4403 151.14C0.150347 129.72 -5.38966 94.01 9.78034 66.35C10.2803 65.44 10.7803 64.53 11.3403 63.65C11.8703 64.61 12.4103 65.56 13.0003 66.5Z" fill="#231815"/>
<path d="M177.51 12.65C177.58 13.94 177.62 15.23 177.63 16.54C177.64 17.85 177.56 19.39 177.48 20.81C173.043 18.8784 168.409 17.4333 163.66 16.5C137.92 11.5 111.15 23.06 96.5002 44.6C94.6602 47.31 91.3701 49.07 88.0302 48.05C73.1402 43.45 57.1802 44.71 43.6002 52.54C38.2459 55.6346 33.4602 59.6221 29.4501 64.33C27.9101 62.2 26.4502 60.02 25.1602 57.78C33.2318 49.0635 43.6247 42.8331 55.1164 39.8215C66.6082 36.81 78.7209 37.1425 90.0302 40.78C91.2701 38.92 92.6035 37.12 94.0302 35.38C103.777 23.2654 117.102 14.5411 132.104 10.4535C147.106 6.36595 163.015 7.12422 177.56 12.62L177.51 12.65Z" fill="#231815"/>
<path d="M178.48 13C183.17 14.8718 187.656 17.2173 191.87 20C190.23 23.24 186.27 24.39 182.93 23.48C181.99 22.96 181.02 22.48 180.05 22C179.27 21.3258 178.649 20.4877 178.231 19.5456C177.812 18.6035 177.607 17.5806 177.63 16.55C177.616 15.3147 177.908 14.0951 178.48 13Z" fill="#231815"/>
<path d="M176.62 4.37C182.149 6.16721 187.459 8.57896 192.45 11.56C192.54 13.04 192.61 14.56 192.62 16.02C192.23 8.19 181.62 7.2 178.48 13.02L177.48 12.64C177.34 9.84667 177.053 7.09 176.62 4.37Z" fill="#231815"/>
<path d="M93.6399 162.25H139.07C139.053 163.496 138.759 164.722 138.21 165.84L122.36 198C134.18 186.067 146.007 174.14 157.84 162.22H179C153.16 188.287 127.317 214.35 101.47 240.41C100.794 241.57 99.7595 242.478 98.5218 242.998C97.2842 243.518 95.911 243.62 94.6099 243.29C89.8099 242.49 85.9299 236.67 89.0299 231.89L119.74 169.52H101.1C99.163 169.491 97.3106 168.721 95.9233 167.369C94.536 166.017 93.7189 164.186 93.6399 162.25Z" fill="#231815"/>
<path d="M94.62 158.27L105.44 139.82C110.4 131.34 115.363 122.867 120.33 114.4C121.33 112.72 122.19 110.99 123.16 109.4C125.16 106.11 127.61 103.46 132.24 103.29C134.513 103.223 136.787 103.17 139.06 103.13C152.06 102.92 165.06 103.29 177.96 103.29C183.38 103.29 187.66 109.76 184.44 114.58L172.38 132.58H190.38C196.9 132.58 200.25 140.78 195.68 145.38L183.75 157.38C182.15 158.99 180.56 160.6 178.96 162.2H157.84L172.38 147.54H158.38C152.96 147.54 148.67 141.07 151.9 136.25L163.96 118.25H135.43L114.19 154.5H131.74C132.736 154.494 133.722 154.693 134.639 155.082C135.555 155.472 136.382 156.045 137.068 156.767C137.755 157.488 138.287 158.342 138.631 159.276C138.975 160.211 139.125 161.206 139.07 162.2H93.64C93.585 160.823 93.9251 159.46 94.62 158.27Z" fill="#231815"/>
<path d="M182.93 23.47C186.27 24.38 190.23 23.23 191.87 19.99C192.08 20.14 192.3 20.28 192.52 20.42C192.38 23.37 192.1 26.3 191.7 29.2C188.932 27.062 186 25.1461 182.93 23.47Z" fill="#231815"/>
<path d="M92.0001 33.58L94.0001 35.41C92.6068 37.15 91.2735 38.95 90.0001 40.81C87.7426 40.0833 85.4455 39.4857 83.1201 39.02L83.5201 37.02L92.0001 33.58Z" fill="#231815"/>
<path d="M177.63 16.54C177.607 17.5706 177.812 18.5935 178.231 19.5356C178.649 20.4777 179.27 21.3159 180.05 21.9901C179.2 21.5801 178.34 21.18 177.48 20.81C177.56 19.39 177.62 18 177.63 16.54Z" fill="#231815"/>
<path d="M8.60991 100C8.59779 89.8508 11.0806 79.8542 15.8399 70.89C17.4599 73.26 19.1799 75.54 20.9799 77.73C15.7809 89.2204 14.7209 102.157 17.9799 114.34C24.4499 138.14 46.3099 154.46 70.8199 154.73C75.6099 154.79 78.0199 158.51 78.0599 162.23H70.8199C54.319 162.225 38.4956 155.666 26.8296 143.996C15.1635 132.326 8.60991 116.501 8.60991 100Z" fill="#231815"/>
<path d="M87.0003 32.26C88.6703 32.64 90.3303 33.07 92.0003 33.58L83.5503 37C84.6703 35.38 85.8203 33.8 87.0003 32.26Z" fill="#231815"/>
<path d="M190.38 132.59H172.38L184.44 114.59C187.66 109.77 183.38 103.3 177.96 103.3C165.02 103.3 152.01 102.93 139.06 103.14C136.78 103.18 134.507 103.233 132.24 103.3C127.61 103.47 125.18 106.12 123.16 109.41C122.16 110.99 121.31 112.72 120.33 114.41C115.363 122.877 110.4 131.35 105.44 139.83L94.6199 158.28C93.9048 159.488 93.5573 160.878 93.6199 162.28H78.0899C78.0899 158.56 75.6399 154.84 70.8499 154.78C46.3399 154.51 24.4799 138.19 18.0099 114.39C14.7509 102.207 15.8109 89.2704 21.0099 77.78C23.1756 72.9239 26.0281 68.4044 29.4799 64.36C33.4899 59.6521 38.2756 55.6646 43.6299 52.57C57.2099 44.74 73.1699 43.48 88.0599 48.08C91.3999 49.08 94.6899 47.34 96.5299 44.63C111.18 23.09 137.95 11.49 163.69 16.53C168.439 17.4633 173.072 18.9084 177.51 20.84C178.37 21.21 179.23 21.61 180.08 22.02C180.93 22.43 182.02 23.02 182.96 23.5C198.032 31.745 209.367 45.4567 214.63 61.81C214.977 63.0616 215.641 64.202 216.56 65.1203C217.478 66.0386 218.618 66.7034 219.87 67.05C242.4 71.94 258.37 92.8 255.48 116.05C252.74 138.15 233.48 154.46 211.48 154.75C206.7 154.82 204.29 158.54 204.24 162.25H179C180.6 160.65 182.19 159.04 183.79 157.43L195.72 145.43C200.25 140.79 196.9 132.59 190.38 132.59Z" fill="#DCDDDD"/>
<path d="M163.92 118.3L151.86 136.3C148.63 141.12 152.92 147.59 158.34 147.59H172.34L157.8 162.25H139.07C139.125 161.256 138.975 160.261 138.631 159.326C138.287 158.392 137.755 157.538 137.068 156.817C136.382 156.095 135.555 155.522 134.638 155.132C133.722 154.743 132.736 154.544 131.74 154.55H114.19L135.43 118.3H163.92Z" fill="#FFFCDD"/>
<path d="M25.1599 57.78C26.4699 60.02 27.9099 62.2 29.4499 64.33C26.0051 68.3756 23.1594 72.8951 20.9999 77.75C19.1999 75.56 17.4799 73.28 15.8599 70.91C18.3835 66.1524 21.5092 61.7394 25.1599 57.78Z" fill="#231815"/>
<path d="M191.87 20C192.315 19.1015 192.57 18.1212 192.62 17.12C192.62 18.23 192.57 19.33 192.52 20.43C192.3 20.28 192.08 20.14 191.87 20Z" fill="#231815"/>
<path d="M211.49 162.25C224.319 162.257 236.694 157.498 246.213 148.897C255.731 140.296 261.716 128.465 263.005 115.701C264.295 102.937 260.797 90.1487 253.191 79.8176C245.584 69.4865 234.412 62.3491 221.84 59.79C216.831 43.7129 206.488 29.8251 192.52 20.42C192.57 19.32 192.61 18.22 192.62 17.11V17C192.62 16.86 192.62 16.72 192.62 16.58V16.51C192.62 16.33 192.62 16.16 192.62 15.99C192.62 14.49 192.54 12.99 192.45 11.53C208.523 21.1851 220.887 35.9582 227.56 53.48C226.33 53.13 225.09 52.8 223.83 52.53L229.07 57.77C228.61 56.32 228.07 54.9 227.56 53.48C254.98 61.36 273.83 88.63 270.29 117.38C268.465 131.735 261.504 144.944 250.695 154.565C239.886 164.187 225.96 169.57 211.49 169.72C206.62 169.79 204.21 166.01 204.25 162.22L211.49 162.25Z" fill="#231815"/>
<path d="M25.1603 57.78C23.841 55.5083 22.6362 53.172 21.5503 50.78C30.0407 42.466 40.4808 36.4143 51.915 33.1788C63.3493 29.9433 75.4124 29.6274 87.0003 32.26C85.787 33.8 84.6236 35.39 83.5103 37.03L83.1103 39.03C72.6454 36.9154 61.8124 37.5306 51.6541 40.8163C41.4959 44.1019 32.3546 49.9474 25.1103 57.79L25.1603 57.78Z" fill="#231815"/>
<path d="M178.48 13C181.58 7.16997 192.23 8.15997 192.62 16C192.62 16.17 192.62 16.34 192.62 16.52V16.59C192.62 16.73 192.62 16.87 192.62 17.01V17.09C192.57 18.0912 192.315 19.0715 191.87 19.97C187.655 17.1977 183.169 14.8623 178.48 13Z" fill="#231815"/>
<path d="M263.24 110.51C263.24 117.305 261.902 124.034 259.301 130.312C256.7 136.59 252.888 142.295 248.082 147.099C243.277 151.904 237.572 155.715 231.293 158.314C225.015 160.914 218.286 162.251 211.49 162.25H204.25C204.25 158.54 206.71 154.82 211.49 154.75C233.49 154.46 252.71 138.15 255.49 116.05C258.38 92.77 242.41 71.91 219.88 67.05C218.629 66.7033 217.488 66.0385 216.57 65.1202C215.652 64.2019 214.987 63.0615 214.64 61.81C210.5 48.8729 202.511 37.5069 191.74 29.2299C192.14 26.3299 192.42 23.4 192.56 20.45C206.528 29.855 216.871 43.7429 221.88 59.82C233.556 62.2167 244.047 68.5687 251.582 77.8037C259.117 87.0387 263.235 98.5909 263.24 110.51Z" fill="#231815"/>
<path d="M157.84 162.25C146.013 174.177 134.187 186.093 122.36 198L138.21 165.81C138.759 164.692 139.053 163.466 139.07 162.22L157.84 162.25Z" fill="#FFFCDD"/>
<path d="M11.3301 63.65C10.7901 64.53 10.2701 65.44 9.77009 66.35C-5.39991 94.01 0.140087 129.72 23.4301 151.14C36.3834 163.007 53.2831 169.639 70.8501 169.75C75.7101 169.81 78.1201 166.03 78.0901 162.25" stroke="#231815" stroke-miterlimit="10"/>
<path d="M87.0003 32.26C75.408 29.6178 63.338 29.927 51.8963 33.1591C40.4545 36.3913 30.0067 42.4431 21.5103 50.76" stroke="#231815" stroke-miterlimit="10"/>
<path d="M176.62 4.36997C173.233 3.26184 169.77 2.39632 166.26 1.77998C151.526 -0.828779 136.359 0.630832 122.393 6.00166C108.427 11.3725 96.1898 20.4511 87 32.26" stroke="#231815" stroke-miterlimit="10"/>
<path d="M204.25 162.25C204.25 166.04 206.62 169.82 211.49 169.75C225.96 169.6 239.886 164.217 250.695 154.595C261.504 144.974 268.464 131.765 270.29 117.41C273.83 88.66 254.98 61.41 227.56 53.51" stroke="#231815" stroke-miterlimit="10"/>
<path d="M227.56 53.5099C220.887 35.9881 208.523 21.215 192.45 11.5599" stroke="#231815" stroke-miterlimit="10"/>
<path d="M227.56 53.5099C228.09 54.9299 228.56 56.3499 229.07 57.7999L223.83 52.5599C225.09 52.8299 226.33 53.1599 227.56 53.5099Z" stroke="#231815" stroke-miterlimit="10"/>
<path d="M92.0003 33.58C90.3503 33.07 88.6903 32.64 87.0003 32.26C85.7869 33.8 84.6236 35.39 83.5103 37.03L92.0003 33.58Z" stroke="#231815" stroke-miterlimit="10"/>
<path d="M192.62 16C192.62 14.5 192.54 13 192.45 11.54C187.459 8.55892 182.149 6.14719 176.62 4.34998C177.047 7.06998 177.343 9.82997 177.51 12.63" stroke="#231815" stroke-miterlimit="10"/>
<path d="M178.48 13C181.58 7.16997 192.23 8.15997 192.62 16" stroke="#231815" stroke-miterlimit="10"/>
<path d="M25.1601 57.78C23.8408 55.5083 22.636 53.1721 21.5501 50.78C17.6331 54.6462 14.2012 58.9747 11.3301 63.67C11.8701 64.67 12.4101 65.58 12.9801 66.52C13.9001 68.03 14.8601 69.52 15.8401 70.93" stroke="#231815" stroke-miterlimit="10"/>
<path d="M192.62 16C192.62 16.17 192.62 16.34 192.62 16.52V16.59" stroke="#231815" stroke-miterlimit="10"/>
<path d="M192.62 17C192.62 16.86 192.62 16.72 192.62 16.58" stroke="#231815" stroke-miterlimit="10"/>
<path d="M192.62 17V17.08" stroke="#231815" stroke-miterlimit="10"/>
<path d="M192.52 20.42C192.57 19.32 192.61 18.22 192.62 17.11" stroke="#231815" stroke-miterlimit="10"/>
<path d="M191.7 29.2C202.471 37.477 210.46 48.8429 214.6 61.78C214.947 63.0316 215.612 64.172 216.53 65.0903C217.448 66.0086 218.589 66.6734 219.84 67.02C242.37 71.91 258.34 92.77 255.45 116.02C252.71 138.12 233.45 154.43 211.45 154.72C206.67 154.79 204.26 158.51 204.21 162.22H211.45C224.279 162.227 236.654 157.468 246.173 148.867C255.691 140.266 261.676 128.435 262.965 115.671C264.255 102.907 260.757 90.1187 253.151 79.7876C245.544 69.4565 234.372 62.3191 221.8 59.76C216.791 43.6829 206.448 29.7951 192.48 20.39" stroke="#231815" stroke-miterlimit="10"/>
<path d="M177.51 12.65C162.968 7.15886 147.062 6.40306 132.065 10.4905C117.068 14.5779 103.745 23.2996 94.0001 35.41C92.6068 37.15 91.2735 38.95 90.0001 40.81C87.7426 40.0833 85.4455 39.4857 83.1201 39.02C72.6552 36.9055 61.8222 37.5206 51.664 40.8063C41.5057 44.092 32.3644 49.9374 25.1201 57.78" stroke="#231815" stroke-miterlimit="10"/>
<path d="M29.4502 64.33C33.4602 59.6221 38.2459 55.6346 43.6002 52.54C57.1802 44.71 73.1402 43.45 88.0302 48.05C91.3702 49.05 94.6602 47.31 96.5002 44.6C111.15 23.06 137.92 11.46 163.66 16.5C168.409 17.4333 173.043 18.8784 177.48 20.81" stroke="#231815" stroke-miterlimit="10"/>
<path d="M15.8402 70.91C10.8212 80.3931 8.33935 91.0127 8.63554 101.738C8.93172 112.463 11.9959 122.93 17.5306 132.121C23.0653 141.313 30.8824 148.917 40.2232 154.196C49.5639 159.475 60.1109 162.25 70.8402 162.25H78.0802C78.0802 158.53 75.6302 154.81 70.8402 154.75C46.3302 154.48 24.4702 138.16 18.0002 114.36C14.7412 102.177 15.8012 89.2404 21.0002 77.75" stroke="#231815" stroke-miterlimit="10"/>
<path d="M191.87 20C187.656 17.2173 183.17 14.8718 178.48 13" stroke="#231815" stroke-miterlimit="10"/>
<path d="M180.05 22C181.05 22.47 181.99 23 182.93 23.48" stroke="#231815" stroke-miterlimit="10"/>
<path d="M25.1603 57.78C21.5026 61.7382 18.3702 66.1512 15.8403 70.91C17.4603 73.28 19.1803 75.56 20.9803 77.75C23.146 72.8939 25.9985 68.3744 29.4503 64.33C27.9103 62.2 26.4703 60 25.1603 57.78Z" stroke="#231815" stroke-miterlimit="10"/>
<path d="M178.48 13L177.48 12.62C177.55 13.91 177.59 15.2 177.6 16.51C177.602 15.2857 177.904 14.0805 178.48 13V13Z" stroke="#231815" stroke-miterlimit="10"/>
<path d="M177.63 16.54C177.63 17.96 177.56 19.39 177.48 20.81C178.34 21.18 179.2 21.5801 180.05 21.9901C179.27 21.3159 178.649 20.4777 178.231 19.5356C177.812 18.5935 177.607 17.5706 177.63 16.54V16.54Z" stroke="#231815" stroke-miterlimit="10"/>
<path d="M182.93 23.47C186 25.1461 188.932 27.062 191.7 29.2C192.1 26.3 192.38 23.37 192.52 20.42C192.3 20.28 192.08 20.14 191.87 19.99C190.23 23.23 186.27 24.38 182.93 23.47Z" stroke="#231815" stroke-miterlimit="10"/>
<path d="M179 162.25C180.6 160.65 182.19 159.04 183.79 157.43L195.72 145.43C200.29 140.83 196.94 132.63 190.42 132.63H172.42L184.48 114.63C187.7 109.81 183.42 103.34 178 103.34C165.06 103.34 152.05 102.97 139.1 103.18C136.82 103.22 134.547 103.273 132.28 103.34C127.65 103.51 125.22 106.16 123.2 109.45C122.2 111.03 121.35 112.76 120.37 114.45C115.403 122.917 110.44 131.39 105.48 139.87L94.6601 158.32C93.9451 159.528 93.5976 160.918 93.6601 162.32C93.7316 164.261 94.5454 166.1 95.9335 167.459C97.3216 168.817 99.1782 169.591 101.12 169.62H119.72L89.0001 231.92C85.9001 236.7 89.7801 242.52 94.5801 243.32C95.8812 243.65 97.2544 243.548 98.4921 243.028C99.7297 242.508 100.765 241.6 101.44 240.44C127.273 214.38 153.127 188.317 179 162.25Z" stroke="#231815" stroke-miterlimit="10"/>
<path d="M157.84 162.25C146.013 174.177 134.187 186.093 122.36 198L138.21 165.81C138.759 164.692 139.053 163.466 139.07 162.22C139.125 161.226 138.975 160.231 138.631 159.296C138.287 158.362 137.755 157.508 137.068 156.787C136.382 156.065 135.555 155.492 134.638 155.102C133.722 154.713 132.736 154.514 131.74 154.52H114.19L135.43 118.27H163.92L151.86 136.27C148.63 141.09 152.92 147.56 158.34 147.56H172.34L157.84 162.25Z" stroke="#231815" stroke-miterlimit="10"/>
</svg>
