<svg width="111" height="58" viewBox="0 0 111 58" fill="none" xmlns="http://www.w3.org/2000/svg">
<rect width="111" height="58" rx="10" fill="#EFF2F7"/>
<path d="M40.082 42.1094L43.4805 29.6875H48.0742L42.332 46.75H37.832L32.1367 29.6875H36.6953L40.082 42.1094ZM59.9102 39.5195H53.4414V43.5859H61.082V46.75H49.3281V29.6875H61.1055V32.8633H53.4414V36.4609H59.9102V39.5195ZM76.7266 44.6406C76.0938 45.3438 75.168 45.9102 73.9492 46.3398C72.7305 46.7695 71.3945 46.9844 69.9414 46.9844C67.707 46.9844 65.9219 46.3008 64.5859 44.9336C63.25 43.5664 62.5352 41.6641 62.4414 39.2266L62.4297 37.75C62.4297 36.0703 62.7266 34.6055 63.3203 33.3555C63.9141 32.0977 64.7617 31.1328 65.8633 30.4609C66.9727 29.7812 68.2539 29.4414 69.707 29.4414C71.832 29.4414 73.4805 29.9297 74.6523 30.9062C75.832 31.875 76.5195 33.3242 76.7148 35.2539H72.7539C72.6133 34.3008 72.3086 33.6211 71.8398 33.2148C71.3711 32.8086 70.707 32.6055 69.8477 32.6055C68.8164 32.6055 68.0195 33.043 67.457 33.918C66.8945 34.793 66.6094 36.043 66.6016 37.668V38.6992C66.6016 40.4023 66.8906 41.6836 67.4688 42.543C68.0547 43.3945 68.9727 43.8203 70.2227 43.8203C71.293 43.8203 72.0898 43.582 72.6133 43.1055V40.457H69.7539V37.6328H76.7266V44.6406Z" fill="#243065"/>
<path d="M23.7676 17.9824H22.0977V22.5H19.0127V9.70312H24.0488C25.5664 9.70312 26.7529 10.04 27.6084 10.7139C28.4639 11.3877 28.8916 12.3398 28.8916 13.5703C28.8916 14.4609 28.71 15.1992 28.3467 15.7852C27.9893 16.3711 27.4268 16.8457 26.6592 17.209L29.3311 22.3682V22.5H26.0264L23.7676 17.9824ZM22.0977 15.6006H24.0488C24.6348 15.6006 25.0742 15.4482 25.3672 15.1436C25.666 14.833 25.8154 14.4023 25.8154 13.8516C25.8154 13.3008 25.666 12.8701 25.3672 12.5596C25.0684 12.2432 24.6289 12.085 24.0488 12.085H22.0977V15.6006ZM38.6914 17.0771H33.8398V20.127H39.5703V22.5H30.7549V9.70312H39.5879V12.085H33.8398V14.7832H38.6914V17.0771ZM51.6816 16.3652C51.6816 17.5488 51.4854 18.583 51.0928 19.4678C50.7002 20.3467 50.1582 21.0527 49.4668 21.5859L51.5322 23.2207L49.625 24.8379L46.874 22.623C46.6162 22.6582 46.3584 22.6758 46.1006 22.6758C45.0107 22.6758 44.0439 22.4238 43.2002 21.9199C42.3564 21.416 41.6973 20.6953 41.2227 19.7578C40.7539 18.8203 40.5107 17.7422 40.4932 16.5234V15.8467C40.4932 14.5869 40.7217 13.4795 41.1787 12.5244C41.6416 11.5693 42.2979 10.8311 43.1475 10.3096C44.0029 9.78809 44.9814 9.52734 46.083 9.52734C47.167 9.52734 48.1338 9.78516 48.9834 10.3008C49.833 10.8164 50.4922 11.5518 50.9609 12.5068C51.4355 13.4561 51.6758 14.5459 51.6816 15.7764V16.3652ZM48.5439 15.8291C48.5439 14.5576 48.3301 13.5938 47.9023 12.9375C47.4805 12.2754 46.874 11.9443 46.083 11.9443C45.2686 11.9443 44.6562 12.2695 44.2461 12.9199C43.8359 13.5703 43.6279 14.5225 43.6221 15.7764V16.3652C43.6221 17.625 43.8301 18.5918 44.2461 19.2656C44.6621 19.9336 45.2803 20.2676 46.1006 20.2676C46.8857 20.2676 47.4863 19.9365 47.9023 19.2744C48.3242 18.6123 48.5381 17.6602 48.5439 16.418V15.8291ZM63.292 9.70312V18.0791C63.292 19.0283 63.0898 19.8516 62.6855 20.5488C62.2812 21.2402 61.7012 21.7676 60.9453 22.1309C60.1895 22.4941 59.2959 22.6758 58.2646 22.6758C56.7061 22.6758 55.4785 22.2715 54.582 21.4629C53.6855 20.6543 53.2285 19.5469 53.2109 18.1406V9.70312H56.3135V18.2021C56.3486 19.6025 56.999 20.3027 58.2646 20.3027C58.9033 20.3027 59.3867 20.127 59.7148 19.7754C60.043 19.4238 60.207 18.8525 60.207 18.0615V9.70312H63.292ZM73.1621 17.0771H68.3105V20.127H74.041V22.5H65.2256V9.70312H74.0586V12.085H68.3105V14.7832H73.1621V17.0771ZM81.8984 19.0986C81.8984 18.6475 81.7373 18.2959 81.415 18.0439C81.0986 17.792 80.5391 17.5312 79.7363 17.2617C78.9336 16.9922 78.2773 16.7314 77.7676 16.4795C76.1094 15.665 75.2803 14.5459 75.2803 13.1221C75.2803 12.4131 75.4854 11.7891 75.8955 11.25C76.3115 10.7051 76.8975 10.2832 77.6533 9.98438C78.4092 9.67969 79.2588 9.52734 80.2021 9.52734C81.1221 9.52734 81.9453 9.69141 82.6719 10.0195C83.4043 10.3477 83.9727 10.8164 84.377 11.4258C84.7812 12.0293 84.9834 12.7207 84.9834 13.5H81.9072C81.9072 12.9785 81.7461 12.5742 81.4238 12.2871C81.1074 12 80.6768 11.8564 80.1318 11.8564C79.5811 11.8564 79.1445 11.9795 78.8223 12.2256C78.5059 12.4658 78.3477 12.7734 78.3477 13.1484C78.3477 13.4766 78.5234 13.7754 78.875 14.0449C79.2266 14.3086 79.8447 14.584 80.7295 14.8711C81.6143 15.1523 82.3408 15.457 82.9092 15.7852C84.292 16.582 84.9834 17.6807 84.9834 19.0811C84.9834 20.2002 84.5615 21.0791 83.7178 21.7178C82.874 22.3564 81.7168 22.6758 80.2461 22.6758C79.209 22.6758 78.2686 22.4912 77.4248 22.1221C76.5869 21.7471 75.9541 21.2373 75.5264 20.5928C75.1045 19.9424 74.8936 19.1953 74.8936 18.3516H77.9873C77.9873 19.0371 78.1631 19.5439 78.5146 19.8721C78.8721 20.1943 79.4492 20.3555 80.2461 20.3555C80.7559 20.3555 81.1572 20.2471 81.4502 20.0303C81.749 19.8076 81.8984 19.4971 81.8984 19.0986ZM96.6113 12.085H92.7705V22.5H89.6855V12.085H85.915V9.70312H96.6113V12.085Z" fill="#243065"/>
</svg>
